<svg width="17" height="15" viewBox="0 0 17 15" fill="none" xmlns="http://www.w3.org/2000/svg">
<path d="M8.5 0C12.7363 0 16.2607 3.04834 17 7.07089C16.2615 11.0934 12.7363 14.1418 8.5 14.1418C4.26375 14.1418 0.739301 11.0934 0 7.07089C0.738516 3.04834 4.26375 0 8.5 0ZM8.5 12.5705C10.1023 12.5701 11.6571 12.0259 12.9098 11.0268C14.1625 10.0277 15.0389 8.63299 15.3957 7.07089C15.0376 5.51004 14.1606 4.11683 12.908 3.11907C11.6554 2.12131 10.1014 1.57801 8.5 1.57801C6.8986 1.57801 5.34457 2.12131 4.09199 3.11907C2.83941 4.11683 1.96238 5.51004 1.60431 7.07089C1.96107 8.63299 2.83753 10.0277 4.09023 11.0268C5.34294 12.0259 6.89768 12.5701 8.5 12.5705V12.5705ZM8.5 10.6063C7.56234 10.6063 6.66309 10.2339 6.00006 9.57083C5.33704 8.90781 4.96455 8.00855 4.96455 7.07089C4.96455 6.13323 5.33704 5.23398 6.00006 4.57096C6.66309 3.90793 7.56234 3.53545 8.5 3.53545C9.43766 3.53545 10.3369 3.90793 10.9999 4.57096C11.663 5.23398 12.0354 6.13323 12.0354 7.07089C12.0354 8.00855 11.663 8.90781 10.9999 9.57083C10.3369 10.2339 9.43766 10.6063 8.5 10.6063ZM8.5 9.03503C9.02092 9.03503 9.52051 8.82809 9.88885 8.45975C10.2572 8.0914 10.4641 7.59181 10.4641 7.07089C10.4641 6.54997 10.2572 6.05039 9.88885 5.68204C9.52051 5.31369 9.02092 5.10676 8.5 5.10676C7.97908 5.10676 7.47949 5.31369 7.11115 5.68204C6.7428 6.05039 6.53586 6.54997 6.53586 7.07089C6.53586 7.59181 6.7428 8.0914 7.11115 8.45975C7.47949 8.82809 7.97908 9.03503 8.5 9.03503Z" fill="#E0BEA2"/>
</svg>
