<svg width="35" height="39" viewBox="0 0 35 39" fill="none" xmlns="http://www.w3.org/2000/svg">
<g clip-path="url(#clip0_406_647)">
<path d="M7.33594 0V5.88889L26.6559 19.4444L7.33594 33V38.8889L34.9999 19.4444L7.33594 0Z" fill="#E0BEA2"/>
<path d="M0 5.72217V33.1111L19.488 19.4444L0 5.72217Z" fill="#E0BEA2"/>
<path d="M5.04971 22.5556C4.61487 22.5499 4.22931 22.4529 3.89304 22.2646C3.55676 22.0763 3.27556 21.8281 3.04944 21.52C2.82333 21.2119 2.65229 20.8809 2.53633 20.5272C2.42617 20.1677 2.37109 19.8168 2.37109 19.4744C2.37109 19.1093 2.43197 18.7441 2.55373 18.3789C2.67548 18.0137 2.85232 17.6828 3.08423 17.3861C3.32195 17.0837 3.60604 16.844 3.93652 16.6672C4.267 16.4846 4.63806 16.3933 5.04971 16.3933C5.49615 16.3933 5.88461 16.4903 6.21508 16.6843C6.55136 16.8783 6.83256 17.1293 7.05867 17.4375C7.28479 17.7456 7.45293 18.0794 7.56309 18.4388C7.67905 18.7983 7.73703 19.1435 7.73703 19.4744C7.73703 19.8453 7.67615 20.2133 7.55439 20.5785C7.43264 20.938 7.2529 21.2661 7.01519 21.5628C6.78328 21.8595 6.50208 22.0991 6.1716 22.2817C5.84112 22.4586 5.46716 22.5499 5.04971 22.5556ZM3.57995 19.4744C3.58575 19.7141 3.61764 19.9537 3.67562 20.1934C3.73939 20.4273 3.82926 20.6441 3.94522 20.8438C4.06697 21.0435 4.22062 21.2062 4.40615 21.3317C4.59168 21.4515 4.8062 21.5114 5.04971 21.5114C5.31062 21.5114 5.53383 21.4458 5.71937 21.3146C5.9049 21.1833 6.05564 21.015 6.1716 20.8096C6.29335 20.6042 6.38322 20.3845 6.4412 20.1506C6.49918 19.9166 6.52817 19.6913 6.52817 19.4744C6.52817 19.2348 6.49628 18.998 6.4325 18.7641C6.37453 18.5244 6.28176 18.3047 6.15421 18.105C6.03245 17.9053 5.87881 17.7456 5.69328 17.6257C5.51354 17.5002 5.29902 17.4375 5.04971 17.4375C4.79461 17.4375 4.57429 17.5031 4.38875 17.6343C4.20322 17.7655 4.04958 17.9339 3.92782 18.1393C3.81187 18.3447 3.7249 18.5644 3.66692 18.7983C3.60894 19.0322 3.57995 19.2576 3.57995 19.4744Z" fill="white"/>
<path d="M12.1739 21.4344V22.47H8.67778V21.4344H9.87794V17.4802C9.83155 17.5487 9.75328 17.6257 9.64312 17.7113C9.53876 17.7912 9.41701 17.8711 9.27786 17.951C9.14451 18.0252 9.00536 18.0879 8.86041 18.1393C8.72126 18.1906 8.59371 18.2163 8.47775 18.2163V17.155C8.63429 17.155 8.79373 17.1151 8.95607 17.0352C9.11841 16.9553 9.26916 16.864 9.40831 16.7613C9.54746 16.6586 9.65762 16.5645 9.73879 16.4789C9.82576 16.3876 9.87214 16.3391 9.87794 16.3334H11.0694V21.4344H12.1739Z" fill="white"/>
</g>
<defs>
<clipPath id="clip0_406_647">
<rect width="35" height="38.8889" fill="white"/>
</clipPath>
</defs>
</svg>
