<svg width="35" height="39" viewBox="0 0 35 39" fill="none" xmlns="http://www.w3.org/2000/svg">
<g clip-path="url(#clip0_406_653)">
<path d="M7.33594 0V5.88889L26.6559 19.4444L7.33594 33V38.8889L34.9999 19.4444L7.33594 0Z" fill="#E0BEA2"/>
<path d="M0 5.72217V33.1111L19.488 19.4444L0 5.72217Z" fill="#E0BEA2"/>
<path d="M4.25232 22.5556C3.81868 22.5499 3.43417 22.4532 3.09882 22.2654C2.76347 22.0776 2.48304 21.8301 2.25754 21.5228C2.03205 21.2156 1.86148 20.8855 1.74584 20.5327C1.63598 20.1743 1.58105 19.8243 1.58105 19.4829C1.58105 19.1187 1.64177 18.7545 1.76319 18.3904C1.88461 18.0262 2.06096 17.6962 2.29224 17.4003C2.5293 17.0987 2.81261 16.8597 3.14219 16.6833C3.47176 16.5012 3.8418 16.4102 4.25232 16.4102C4.69753 16.4102 5.08493 16.5069 5.4145 16.7004C5.74985 16.8939 6.03028 17.1442 6.25577 17.4515C6.48127 17.7588 6.64895 18.0916 6.75881 18.4501C6.87444 18.8086 6.93226 19.1529 6.93226 19.4829C6.93226 19.8528 6.87155 20.2198 6.75013 20.5839C6.62871 20.9424 6.44947 21.2696 6.21241 21.5655C5.98113 21.8614 5.70071 22.1004 5.37113 22.2825C5.04156 22.4589 4.66862 22.5499 4.25232 22.5556ZM2.78659 19.4829C2.79238 19.7219 2.82418 19.9609 2.882 20.1999C2.9456 20.4332 3.03522 20.6494 3.15086 20.8485C3.27228 21.0477 3.4255 21.2099 3.61052 21.3351C3.79555 21.4545 4.00948 21.5143 4.25232 21.5143C4.51251 21.5143 4.73512 21.4489 4.92014 21.318C5.10516 21.1871 5.25549 21.0192 5.37113 20.8144C5.49255 20.6096 5.58218 20.3905 5.64 20.1572C5.69781 19.9239 5.72672 19.6991 5.72672 19.4829C5.72672 19.2439 5.69492 19.0078 5.63132 18.7745C5.5735 18.5355 5.48099 18.3164 5.35379 18.1172C5.23237 17.9181 5.07914 17.7588 4.89412 17.6393C4.71488 17.5141 4.50095 17.4515 4.25232 17.4515C3.99792 17.4515 3.7782 17.5169 3.59318 17.6478C3.40816 17.7787 3.25493 17.9465 3.13351 18.1514C3.01787 18.3562 2.93114 18.5753 2.87332 18.8086C2.8155 19.0419 2.78659 19.2667 2.78659 19.4829Z" fill="white"/>
<path d="M7.65361 22.4702C7.65361 22.1231 7.67674 21.8187 7.72299 21.557C7.76925 21.2895 7.84152 21.0534 7.93982 20.8485C8.04389 20.638 8.17688 20.4531 8.33877 20.2937C8.50067 20.1344 8.70015 19.9836 8.93721 19.8414C9.13958 19.7276 9.34773 19.6166 9.56166 19.5085C9.78137 19.4004 9.98374 19.2866 10.1688 19.1671C10.3596 19.0476 10.5128 18.911 10.6284 18.7574C10.7499 18.6038 10.8106 18.416 10.8106 18.1941C10.8106 18.0234 10.773 17.8783 10.6978 17.7588C10.6284 17.6336 10.5244 17.5368 10.3856 17.4686C10.2526 17.4003 10.0907 17.3661 9.8999 17.3661C9.68019 17.3661 9.47493 17.406 9.28412 17.4856C9.0991 17.5596 8.93142 17.6535 8.78109 17.7673C8.63654 17.8754 8.51223 17.9835 8.40816 18.0916L7.67963 17.3405C7.76058 17.2495 7.87043 17.1471 8.0092 17.0333C8.15375 16.9195 8.32432 16.8085 8.52091 16.7004C8.72327 16.5923 8.95166 16.5041 9.20607 16.4358C9.46047 16.3675 9.7409 16.3334 10.0473 16.3334C10.4983 16.3334 10.8771 16.413 11.1835 16.5724C11.4899 16.726 11.7212 16.9394 11.8773 17.2125C12.0392 17.4799 12.1202 17.7901 12.1202 18.1429C12.1202 18.3989 12.0768 18.6265 11.9901 18.8257C11.9091 19.0191 11.7964 19.1898 11.6518 19.3378C11.5073 19.4857 11.3454 19.6195 11.1662 19.739C10.9869 19.8528 10.8019 19.9637 10.6111 20.0718C10.3104 20.2312 10.0676 20.3706 9.88256 20.4901C9.69754 20.6096 9.55009 20.7205 9.44024 20.8229C9.33616 20.9254 9.25522 21.0278 9.1974 21.1302C9.14536 21.2269 9.0991 21.3294 9.05863 21.4375H12.1289V22.4702H7.65361Z" fill="white"/>
</g>
<defs>
<clipPath id="clip0_406_653">
<rect width="35" height="38.8889" fill="white"/>
</clipPath>
</defs>
</svg>
