<svg width="35" height="41" viewBox="0 0 35 41" fill="none" xmlns="http://www.w3.org/2000/svg">
<g clip-path="url(#clip0_406_659)">
<path d="M7.33594 0.888916V6.87279L26.6559 20.647L7.33594 34.4212V40.405L34.9999 20.647L7.33594 0.888916Z" fill="#E0BEA2"/>
<path d="M0 6.70337V34.534L19.488 20.6469L0 6.70337Z" fill="#E0BEA2"/>
<path d="M4.25232 23.8083C3.81868 23.8025 3.43418 23.7042 3.09882 23.5134C2.76347 23.3226 2.48304 23.0711 2.25754 22.7589C2.03205 22.4466 1.86148 22.1113 1.74584 21.7528C1.63598 21.3885 1.58105 21.033 1.58105 20.686C1.58105 20.316 1.64177 19.9459 1.76319 19.5759C1.88461 19.2059 2.06096 18.8705 2.29224 18.5698C2.5293 18.2634 2.81261 18.0205 3.14219 17.8413C3.47176 17.6563 3.8418 17.5638 4.25232 17.5638C4.69754 17.5638 5.08493 17.6621 5.4145 17.8587C5.74985 18.0552 6.03028 18.3096 6.25577 18.6219C6.48127 18.9341 6.64895 19.2723 6.75881 19.6366C6.87445 20.0009 6.93227 20.3507 6.93227 20.686C6.93227 21.0619 6.87155 21.4348 6.75013 21.8048C6.62871 22.1691 6.44947 22.5016 6.21241 22.8022C5.98113 23.1029 5.70071 23.3457 5.37113 23.5308C5.04156 23.71 4.66863 23.8025 4.25232 23.8083ZM2.78659 20.686C2.79238 20.9289 2.82418 21.1717 2.882 21.4146C2.9456 21.6516 3.03522 21.8713 3.15086 22.0737C3.27228 22.2761 3.4255 22.4409 3.61053 22.5681C3.79555 22.6895 4.00948 22.7502 4.25232 22.7502C4.51251 22.7502 4.73512 22.6837 4.92014 22.5507C5.10516 22.4177 5.25549 22.2472 5.37113 22.039C5.49256 21.8309 5.58218 21.6083 5.64 21.3712C5.69782 21.1341 5.72673 20.9058 5.72673 20.686C5.72673 20.4432 5.69492 20.2032 5.63132 19.9662C5.5735 19.7233 5.48099 19.5007 5.35379 19.2984C5.23237 19.096 5.07914 18.9341 4.89412 18.8127C4.71488 18.6855 4.50095 18.6219 4.25232 18.6219C3.99792 18.6219 3.7782 18.6884 3.59318 18.8214C3.40816 18.9543 3.25493 19.1249 3.13351 19.3331C3.01787 19.5412 2.93114 19.7638 2.87332 20.0009C2.8155 20.2379 2.78659 20.4663 2.78659 20.686Z" fill="white"/>
<path d="M9.65706 23.7823C9.32749 23.7823 9.02683 23.7418 8.75508 23.6609C8.48911 23.5741 8.25494 23.4527 8.05257 23.2966C7.85598 23.1347 7.69987 22.9439 7.58423 22.7242L8.20868 21.9349C8.2665 22.0621 8.35901 22.1865 8.48621 22.3079C8.61342 22.4293 8.77242 22.5276 8.96323 22.6028C9.15403 22.6779 9.37086 22.7155 9.6137 22.7155C9.85076 22.7155 10.056 22.6808 10.2295 22.6114C10.4029 22.542 10.5359 22.4466 10.6284 22.3252C10.7267 22.198 10.7759 22.0448 10.7759 21.8656C10.7759 21.6748 10.7152 21.5129 10.5937 21.3799C10.4781 21.2469 10.3046 21.1457 10.0734 21.0763C9.84209 21.0069 9.55877 20.9722 9.22342 20.9722H8.93721V20.1049H9.24076C9.65706 20.1049 9.98953 20.0327 10.2382 19.8881C10.4926 19.7436 10.6198 19.5383 10.6198 19.2723C10.6198 19.1105 10.5764 18.9717 10.4897 18.856C10.4029 18.7346 10.2873 18.645 10.1427 18.5872C9.9982 18.5236 9.83919 18.4918 9.66574 18.4918C9.37664 18.4918 9.11934 18.5612 8.89384 18.6999C8.67413 18.8329 8.50645 19.0064 8.39081 19.2203L7.63627 18.379C7.76347 18.194 7.93693 18.0379 8.15664 17.9107C8.37636 17.7777 8.62209 17.6736 8.89384 17.5985C9.17138 17.5233 9.45758 17.4857 9.75247 17.4857C10.163 17.4857 10.5272 17.558 10.8453 17.7025C11.1633 17.8413 11.4119 18.0321 11.5911 18.275C11.7704 18.5178 11.86 18.7953 11.86 19.1076C11.86 19.3388 11.8108 19.5499 11.7126 19.7407C11.62 19.9315 11.4871 20.0905 11.3136 20.2177C11.1401 20.3449 10.9349 20.4374 10.6978 20.4952C10.9522 20.5357 11.1748 20.6311 11.3656 20.7814C11.5622 20.926 11.7126 21.111 11.8166 21.3365C11.9265 21.5562 11.9814 21.7962 11.9814 22.0564C11.9814 22.4206 11.8773 22.73 11.6692 22.9844C11.4668 23.2388 11.1893 23.4354 10.8366 23.5741C10.4897 23.7129 10.0965 23.7823 9.65706 23.7823Z" fill="white"/>
</g>
<defs>
<clipPath id="clip0_406_659">
<rect width="35" height="39.5161" fill="white" transform="translate(0 0.888916)"/>
</clipPath>
</defs>
</svg>
